HIERARCHY
ROOT Hips
{
	OFFSET 0.000000 88.474243 0.000000
	CHANNELS 6 Xposition Yposition Zposition Zrotation Yrotation Xrotation 
	JOINT Hips_Spine
	{
		OFFSET 0.000000 0.000000 0.000000
		CHANNELS 3 Zrotation Yrotation Xrotation
		JOINT Spine
		{
			OFFSET 0.005100 8.711998 -0.691000
			CHANNELS 3 Zrotation Yrotation Xrotation
			JOINT Spine1
			{
				OFFSET -0.009200 8.660301 -1.275000
				CHANNELS 3 Zrotation Yrotation Xrotation
				JOINT Spine2
				{
					OFFSET 0.006300 9.852501 -1.857000
					CHANNELS 3 Zrotation Yrotation Xrotation
					JOINT Spine2_Neck
					{
						OFFSET 0.000000 0.000000 0.000000
						CHANNELS 3 Zrotation Yrotation Xrotation
						JOINT Neck
						{
							OFFSET 0.016300 11.420799 -0.263300
							CHANNELS 3 Zrotation Yrotation Xrotation
							End Site #name: Head
							{
								OFFSET -0.019200 9.262405 2.362500
							}
						}
					}
					JOINT Spine2_LeftShoulder
					{
						OFFSET 0.000000 0.000000 0.000000
						CHANNELS 3 Zrotation Yrotation Xrotation
						JOINT LeftShoulder
						{
							OFFSET 5.616900 6.732201 -0.345700
							CHANNELS 3 Zrotation Yrotation Xrotation
							JOINT LeftArm
							{
								OFFSET 10.664888 -0.183372 -2.440700
								CHANNELS 3 Zrotation Yrotation Xrotation
								JOINT LeftForeArm
								{
									OFFSET 27.459126 0.000000 0.000000
									CHANNELS 3 Zrotation Yrotation Xrotation
									End Site #name: LeftHand
									{
										OFFSET 21.306858 0.000000 0.000000
									}
								}
							}
						}
					}
					JOINT Spine2_RightShoulder
					{
						OFFSET 0.000000 0.000000 0.000000
						CHANNELS 3 Zrotation Yrotation Xrotation
						JOINT RightShoulder
						{
							OFFSET -5.580300 6.737503 -0.344400
							CHANNELS 3 Zrotation Yrotation Xrotation
							JOINT RightArm
							{
								OFFSET -10.679335 -0.188484 -2.383900
								CHANNELS 3 Zrotation Yrotation Xrotation
								JOINT RightForeArm
								{
									OFFSET -27.503529 0.000000 0.000000
									CHANNELS 3 Zrotation Yrotation Xrotation
									End Site #name: RightHand
									{
										OFFSET -21.306808 0.000000 0.000000
									}
								}
							}
						}
					}
				}
			}
		}
	}
	JOINT Hips_LeftUpLeg
	{
		OFFSET 0.000000 0.000000 0.000000
		CHANNELS 3 Zrotation Yrotation Xrotation
		JOINT LeftUpLeg
		{
			OFFSET 6.857700 -6.739601 0.312100
			CHANNELS 3 Zrotation Yrotation Xrotation
			JOINT LeftLeg
			{
				OFFSET -0.367590 -34.731552 -4.572400
				CHANNELS 3 Zrotation Yrotation Xrotation
				End Site #name: LeftFoot
				{
					OFFSET 0.367590 -34.656704 -6.067400
				}
			}
		}
	}
	JOINT Hips_RightUpLeg
	{
		OFFSET 0.000000 0.000000 0.000000
		CHANNELS 3 Zrotation Yrotation Xrotation
		JOINT RightUpLeg
		{
			OFFSET -6.876100 -6.733299 0.301000
			CHANNELS 3 Zrotation Yrotation Xrotation
			JOINT RightLeg
			{
				OFFSET 0.347353 -34.795158 -4.515900
				CHANNELS 3 Zrotation Yrotation Xrotation
				End Site #name: RightFoot
				{
					OFFSET -0.347353 -34.589367 -6.070300
				}
			}
		}
	}
}
MOTION
Frames: 17
Frame Time: 0.041667
-3.905359 -0.159613 -0.340904 -2.393611 7.839149 -3.782939 0.000000 -0.000000 0.000000 0.389807 1.967924 1.695884 0.551453 2.587512 2.692238 0.000000 0.000000 0.000000 -0.102306 2.430205 2.447572 2.401094 -3.033858 1.186012 0.284506 2.386590 3.352278 -14.173535 -2.989838 1.779706 -50.029830 -9.517090 20.443570 -0.101986 -23.531970 0.311149 0.095360 2.867427 3.061329 16.804617 6.369127 2.191006 59.056202 8.345025 5.489525 0.087661 31.232929 0.318218 -0.000000 -0.000000 -0.000000 4.657677 13.402854 -19.192676 -0.100511 -3.324582 25.764896 0.000000 0.000000 0.000000 5.783651 -8.864583 -12.656108 0.056737 4.856631 16.865158 
-4.317558 -0.166833 -0.400888 -2.729083 8.063346 -3.560082 0.000000 -0.000000 0.000000 0.679942 1.905116 1.879111 0.746999 2.459715 2.814640 0.000000 0.000000 0.000000 0.069584 2.322741 2.591348 2.653388 -3.044561 1.418934 0.455394 2.255367 3.469908 -14.027395 -3.014116 1.752012 -50.703664 -9.155131 20.369798 -0.100166 -23.636141 0.322091 0.315712 2.734038 3.169199 17.258097 5.989190 2.100750 58.695617 8.095198 5.501459 0.083130 30.406614 0.307131 -0.000000 -0.000000 -0.000000 5.635939 14.259786 -20.391960 -0.661156 -3.397223 27.492437 0.000000 0.000000 0.000000 6.754078 -8.632103 -12.965502 -0.279547 4.190464 16.510375 
-4.683334 -0.175703 -0.464767 -2.982260 8.412157 -3.376894 0.000000 -0.000000 0.000000 0.949001 1.844839 2.064579 0.930110 2.337677 2.924385 0.000000 0.000000 0.000000 0.233162 2.217376 2.724849 2.870831 -3.054188 1.707167 0.606313 2.127266 3.546604 -13.883739 -3.028329 1.723690 -51.312480 -8.830544 20.272491 -0.099294 -23.742139 0.332099 0.534493 2.596811 3.252324 17.649312 5.649748 2.017352 58.340110 7.913770 5.465472 0.079017 29.634237 0.296235 -0.000000 -0.000000 -0.000000 6.692577 15.360312 -22.032497 -1.483680 -3.482505 31.645691 0.000000 0.000000 0.000000 7.568053 -8.524168 -13.226361 -0.558666 3.642628 16.260424 
-5.008353 -0.184569 -0.531155 -3.147576 8.760690 -3.233977 0.000000 -0.000000 -0.000000 1.228300 1.774537 2.248524 1.095776 2.219327 3.019710 0.000000 0.000000 0.000000 0.383343 2.110588 2.841393 3.152742 -3.061176 1.936161 0.744193 2.003896 3.608174 -13.742266 -3.039206 1.695405 -51.858305 -8.536562 20.155981 -0.097441 -23.852974 0.340139 0.735268 2.464528 3.319416 17.947717 5.428823 1.959688 58.051505 7.787250 5.460742 0.075055 28.929288 0.285612 -0.000000 -0.000000 -0.000000 7.736945 16.583324 -24.249578 -2.134936 -3.304788 36.661015 0.000000 0.000000 0.000000 8.184132 -8.455454 -13.433689 -0.811333 3.126727 16.107073 
-5.298135 -0.191772 -0.598147 -3.241100 9.047029 -3.129396 0.000000 -0.000000 -0.000000 1.534414 1.681467 2.434612 1.235836 2.105172 3.102152 0.000000 0.000000 0.000000 0.513845 2.004914 2.954255 3.415790 -3.044523 2.123953 0.864679 1.885259 3.658928 -13.603834 -3.046180 1.669717 -52.324854 -8.261310 20.009415 -0.095001 -23.972895 0.346698 0.904120 2.338821 3.372281 18.148886 5.307022 1.922659 57.820597 7.710802 5.510862 0.071631 28.354483 0.277520 -0.000000 -0.000000 -0.000000 8.502178 17.744372 -26.875007 -2.382859 -2.599985 41.232408 0.000000 0.000000 0.000000 8.619553 -8.360082 -13.595197 -1.053859 2.585495 16.027344 
-5.557145 -0.196501 -0.664074 -3.282608 9.275098 -3.048818 0.000000 -0.000000 -0.000000 1.799196 1.608438 2.585436 1.352425 1.994621 3.176110 0.000000 0.000000 0.000000 0.623759 1.903999 3.054614 3.576482 -3.001587 2.310205 0.965108 1.771342 3.707356 -13.476285 -3.047209 1.644743 -52.725407 -7.987455 19.819525 -0.093317 -24.096341 0.352557 1.043563 2.217202 3.419876 18.296646 5.263562 1.907214 57.609722 7.673613 5.501906 0.069095 27.957164 0.269664 -0.000000 -0.000000 -0.000000 8.942741 18.849749 -29.369358 -2.194523 -1.543140 45.103938 0.000000 0.000000 0.000000 8.923206 -8.238881 -13.726082 -1.291195 2.020009 16.007653 
-5.784260 -0.198599 -0.728483 -3.289405 9.465546 -2.986592 0.000000 -0.000000 -0.000000 2.026121 1.552999 2.720150 1.443806 1.884497 3.248532 0.000000 0.000000 0.000000 0.705065 1.806045 3.150299 3.668662 -2.949576 2.476314 1.047184 1.658834 3.760111 -13.361405 -3.045503 1.621419 -53.067989 -7.704702 19.578184 -0.091878 -24.221491 0.357052 1.160337 2.097148 3.469803 18.405014 5.237229 1.897750 57.402634 7.636338 5.381810 0.066743 27.751178 0.261436 -0.000000 -0.000000 -0.000000 9.331025 19.909613 -31.654151 -1.339418 0.106362 48.946059 0.000000 0.000000 0.000000 9.129948 -8.108913 -13.826365 -1.522032 1.452726 16.020972 
-5.972228 -0.198026 -0.789130 -3.269423 9.621584 -2.941577 0.000000 -0.000000 -0.000000 2.238914 1.503466 2.849520 1.514320 1.775407 3.316433 0.000000 0.000000 0.000000 0.771344 1.703864 3.240931 3.733948 -2.864701 2.567660 1.113475 1.546074 3.812170 -13.265843 -3.040466 1.600688 -53.320116 -7.395604 19.276706 -0.091560 -24.334332 0.360469 1.253852 1.975929 3.515590 18.485676 5.248531 1.899327 57.183556 7.618791 5.182952 0.064816 27.620314 0.254071 -0.000000 -0.000000 -0.000000 9.818392 21.126161 -33.787162 -0.395431 1.635688 52.656201 0.000000 0.000000 0.000000 9.260022 -7.982666 -13.904723 -1.745641 0.907525 16.057086 
-6.120033 -0.194612 -0.845972 -3.226346 9.732497 -2.910148 0.000000 -0.000000 -0.000000 2.413358 1.464127 2.967606 1.567735 1.668740 3.371037 0.000000 0.000000 0.000000 0.823488 1.600847 3.312526 3.774385 -2.753913 2.605612 1.165379 1.440248 3.851870 -13.185898 -3.036336 1.584297 -53.528284 -7.093370 18.917814 -0.091937 -24.428854 0.364965 1.330295 1.857599 3.548551 18.548698 5.269674 1.905601 56.957923 7.664180 4.928136 0.062451 27.514743 0.247948 -0.000000 -0.000000 -0.000000 10.196463 22.209135 -35.617873 0.790226 3.048648 55.907027 0.000000 0.000000 0.000000 9.325462 -7.862432 -13.958058 -1.959664 0.410975 16.107058 
-6.224608 -0.188332 -0.899073 -3.170455 9.789816 -2.890846 0.000000 -0.000000 -0.000000 2.547535 1.433079 3.069755 1.609665 1.568667 3.407106 0.000000 0.000000 0.000000 0.867449 1.504502 3.359738 3.806082 -2.626337 2.624555 1.208387 1.340238 3.881176 -13.117715 -3.030231 1.569699 -53.664229 -6.763998 18.507159 -0.091714 -24.498193 0.367999 1.392815 1.746748 3.565478 18.608143 5.302206 1.919892 56.754865 7.703535 4.679113 0.060884 27.380503 0.240180 -0.000000 -0.000000 -0.000000 10.468985 22.826817 -37.144127 2.405331 4.438244 58.513232 0.000000 0.000000 0.000000 9.343438 -7.758310 -13.986325 -2.161307 -0.024812 16.156461 
-6.282887 -0.179136 -0.948381 -3.108064 9.789613 -2.882598 0.000000 -0.000000 -0.000000 2.650641 1.405114 3.155993 1.640141 1.474149 3.418128 0.000000 0.000000 0.000000 0.907532 1.414406 3.380611 3.832802 -2.491840 2.641430 1.247415 1.246574 3.887937 -13.077219 -3.039674 1.563037 -53.786265 -6.427067 18.031017 -0.091989 -24.538225 0.371179 1.447447 1.641606 3.565448 18.664538 5.341977 1.937571 56.595764 7.705639 4.428255 0.060213 27.100664 0.230583 -0.000000 -0.000000 -0.000000 10.589168 23.088886 -38.301792 4.114685 5.824656 60.068963 0.000000 0.000000 0.000000 9.318822 -7.678459 -13.982903 -2.355091 -0.414365 16.199262 
-6.291724 -0.167107 -0.993878 -3.045520 9.725747 -2.887621 0.000000 -0.000000 -0.000000 2.720703 1.378165 3.222781 1.666644 1.379410 3.411358 0.000000 0.000000 0.000000 0.944947 1.323819 3.376865 3.850656 -2.356486 2.671002 1.282312 1.155333 3.875261 -13.058545 -3.046635 1.559852 -53.865870 -6.106052 17.521699 -0.091429 -24.558562 0.373893 1.497026 1.538765 3.546187 18.713305 5.375959 1.953596 56.511144 7.628286 4.148395 0.061172 26.567931 0.218592 -0.000000 -0.000000 -0.000000 10.544332 23.095748 -38.984505 5.524557 6.958845 60.401966 0.000000 0.000000 0.000000 9.255098 -7.619769 -13.950981 -2.546422 -0.795260 16.242869 
-6.247775 -0.152476 -1.035468 -2.988134 9.584855 -2.909422 0.000000 -0.000000 -0.000000 2.757187 1.348146 3.269641 1.686634 1.286592 3.386622 0.000000 0.000000 0.000000 0.976593 1.234062 3.347478 3.855673 -2.221246 2.709892 1.312942 1.066448 3.843854 -13.060466 -3.052934 1.560223 -53.902410 -5.799370 17.049474 -0.090942 -24.565512 0.375742 1.538654 1.437806 3.506504 18.755628 5.398201 1.966619 56.532989 7.462307 3.857226 0.061329 25.750078 0.201491 -0.000000 -0.000000 -0.000000 10.346375 22.882037 -39.139949 6.309632 7.866477 59.613283 0.000000 0.000000 0.000000 9.154125 -7.576305 -13.891201 -2.746324 -1.211495 16.295763 
-6.152427 -0.135387 -1.073130 -2.943275 9.355894 -2.951257 0.000000 -0.000000 -0.000000 2.757908 1.314353 3.296429 1.700548 1.196094 3.344306 0.000000 0.000000 0.000000 1.003117 1.146161 3.295628 3.855115 -2.087668 2.757484 1.337917 0.981624 3.792342 -13.083695 -3.066625 1.567864 -53.917428 -5.605893 16.731689 -0.089420 -24.536484 0.376937 1.573432 1.339955 3.448239 18.779212 5.401292 1.975395 56.683790 7.178975 3.597354 0.060947 24.589246 0.179444 -0.000000 -0.000000 -0.000000 10.000206 22.433435 -38.636864 6.780442 8.646541 57.842730 0.000000 0.000000 0.000000 9.012477 -7.538673 -13.795909 -2.972799 -1.706042 16.355628 
-6.006862 -0.116030 -1.107010 -2.913226 9.039296 -3.013461 0.000000 -0.000000 -0.000000 2.722834 1.274567 3.306370 1.709510 1.107788 3.283665 0.000000 0.000000 0.000000 1.021111 1.060477 3.218172 3.848779 -1.968680 2.837219 1.357941 0.900691 3.723033 -13.120825 -3.094674 1.581916 -53.885542 -5.521027 16.615176 -0.087269 -24.461892 0.376590 1.599898 1.244580 3.369159 18.761130 5.385716 1.980006 56.980478 6.790365 3.434958 0.061327 23.141026 0.153817 -0.000000 -0.000000 -0.000000 9.450509 21.577239 -37.388880 6.403411 8.912720 54.764381 0.000000 0.000000 0.000000 8.826711 -7.495152 -13.667648 -3.238663 -2.319246 16.422266 
-5.812283 -0.094532 -1.137348 -2.895115 8.627857 -3.089918 0.000000 -0.000000 -0.000000 2.656422 1.226049 3.298651 1.709143 1.023698 3.203600 0.000000 0.000000 0.000000 1.034054 0.976985 3.117020 3.798022 -1.924748 2.930216 1.372249 0.826632 3.636963 -13.175219 -3.134818 1.602329 -53.799421 -5.508530 16.575152 -0.087073 -24.363692 0.376600 1.618366 1.152435 3.272302 18.681789 5.342013 1.978365 57.375966 6.344094 3.352232 0.061980 21.775386 0.128239 -0.000000 -0.000000 -0.000000 8.875370 20.240130 -35.182737 5.358075 8.599763 49.903918 0.000000 0.000000 0.000000 8.590783 -7.437852 -13.515521 -3.507057 -3.054457 16.510540 
-5.569289 -0.071023 -1.163802 -2.886395 8.142256 -3.170524 0.000000 -0.000000 -0.000000 2.544420 1.167620 3.278717 1.698493 0.941714 3.115859 0.000000 0.000000 0.000000 1.036549 0.894428 3.004737 3.747476 -1.891248 3.027643 1.377917 0.757139 3.538953 -13.244467 -3.191390 1.628359 -53.675367 -5.509805 16.571562 -0.086199 -24.226895 0.374234 1.628095 1.064833 3.165312 18.529161 5.261250 1.964716 57.786424 5.941632 3.345062 0.065064 20.663776 0.103425 -0.000000 -0.000000 -0.000000 8.583815 18.406558 -31.814523 4.561612 8.038893 43.655601 0.000000 0.000000 0.000000 8.295183 -7.373952 -13.348432 -3.786687 -3.962573 16.632659 
